<svg xmlns="http://www.w3.org/2000/svg" viewBox="0 0 900 380" width="900" height="380" role="img" aria-label="Requirements and Specifications grounding Swagger, Hooks, Screens and Journeys."><title>Requirements and Specifications grounding Swagger, Hooks, Screens and Journeys.</title><rect x="0" y="0" width="900" height="380" fill="#0d1117"/><rect x="36" y="55" width="279" height="264" rx="14" fill="none" stroke="#e0913a" stroke-width="3"/><line x1="175" y1="235" x2="175" y2="139" stroke="#e0913a" stroke-width="3" stroke-linecap="square"/><polygon points="175,139 168,151 182,151" fill="#e0913a"/><line x1="396" y1="106" x2="315" y2="106" stroke="#7ba3e3" stroke-width="3" stroke-linecap="square"/><polygon points="315,106 327,99 327,113" fill="#7ba3e3"/><line x1="495" y1="232" x2="495" y2="142" stroke="#7ba3e3" stroke-width="3" stroke-linecap="square"/><polygon points="495,142 488,154 502,154" fill="#7ba3e3"/><line x1="666" y1="268" x2="594" y2="268" stroke="#7ba3e3" stroke-width="3" stroke-linecap="square"/><polygon points="594,268 606,261 606,275" fill="#7ba3e3"/><line x1="765" y1="142" x2="765" y2="232" stroke="#7ba3e3" stroke-width="3" stroke-linecap="square"/><polygon points="765,232 758,220 772,220" fill="#7ba3e3"/><line x1="765" y1="70" x2="765" y2="15" stroke="#7ba3e3" stroke-width="3" stroke-linecap="square"/><line x1="765" y1="15" x2="175" y2="15" stroke="#7ba3e3" stroke-width="3" stroke-linecap="square"/><line x1="175" y1="15" x2="175" y2="55" stroke="#7ba3e3" stroke-width="3" stroke-linecap="square"/><polygon points="175,55 168,43 182,43" fill="#7ba3e3"/><line x1="765" y1="304" x2="765" y2="359" stroke="#7ba3e3" stroke-width="3" stroke-linecap="square"/><line x1="765" y1="359" x2="175" y2="359" stroke="#7ba3e3" stroke-width="3" stroke-linecap="square"/><line x1="175" y1="359" x2="175" y2="319" stroke="#7ba3e3" stroke-width="3" stroke-linecap="square"/><polygon points="175,319 168,331 182,331" fill="#7ba3e3"/><rect x="48" y="67" width="255" height="72" rx="10" fill="#2b2114" stroke="#e0913a" stroke-width="3"/><text x="175.5" y="103" fill="#f2c98a" font-family="Pretendard, -apple-system, 'Segoe UI', 'Malgun Gothic', system-ui, sans-serif" font-size="27" font-weight="700" text-anchor="middle" dominant-baseline="central">Requirements</text><rect x="48" y="235" width="255" height="72" rx="10" fill="#2b2114" stroke="#e0913a" stroke-width="3"/><text x="175.5" y="271" fill="#f2c98a" font-family="Pretendard, -apple-system, 'Segoe UI', 'Malgun Gothic', system-ui, sans-serif" font-size="27" font-weight="700" text-anchor="middle" dominant-baseline="central">Specifications</text><rect x="396" y="70" width="198" height="72" rx="10" fill="#8ab4ff" stroke="#8ab4ff" stroke-width="3"/><rect x="401" y="75" width="188" height="62" rx="6" fill="none" stroke="#14284b" stroke-width="3"/><text x="495" y="106" fill="#0d1117" font-family="Pretendard, -apple-system, 'Segoe UI', 'Malgun Gothic', system-ui, sans-serif" font-size="27" font-weight="700" text-anchor="middle" dominant-baseline="central">Swagger</text><rect x="396" y="232" width="198" height="72" rx="10" fill="#19212e" stroke="#7ba3e3" stroke-width="3"/><text x="495" y="268" fill="#dfe8f6" font-family="Pretendard, -apple-system, 'Segoe UI', 'Malgun Gothic', system-ui, sans-serif" font-size="27" font-weight="700" text-anchor="middle" dominant-baseline="central">Hooks</text><rect x="666" y="70" width="198" height="72" rx="10" fill="#19212e" stroke="#7ba3e3" stroke-width="3"/><text x="765" y="106" fill="#dfe8f6" font-family="Pretendard, -apple-system, 'Segoe UI', 'Malgun Gothic', system-ui, sans-serif" font-size="27" font-weight="700" text-anchor="middle" dominant-baseline="central">Journeys</text><rect x="666" y="232" width="198" height="72" rx="10" fill="#19212e" stroke="#7ba3e3" stroke-width="3"/><text x="765" y="268" fill="#dfe8f6" font-family="Pretendard, -apple-system, 'Segoe UI', 'Malgun Gothic', system-ui, sans-serif" font-size="27" font-weight="700" text-anchor="middle" dominant-baseline="central">Screens</text></svg>
